<svg width="24" height="25" viewBox="0 0 24 25" fill="none" xmlns="http://www.w3.org/2000/svg">
<circle cx="11.5789" cy="7.77803" r="4.77803" stroke="black" stroke-width="1.5" stroke-linecap="round" stroke-linejoin="round"/>
<path fill-rule="evenodd" clip-rule="evenodd" d="M4.00002 19.2013C3.99873 18.8654 4.07385 18.5336 4.2197 18.2311C4.67736 17.3157 5.96798 16.8306 7.03892 16.6109C7.81128 16.4461 8.59431 16.336 9.38217 16.2814C10.8408 16.1533 12.3079 16.1533 13.7666 16.2814C14.5544 16.3366 15.3374 16.4467 16.1099 16.6109C17.1808 16.8306 18.4714 17.27 18.9291 18.2311C19.2224 18.8479 19.2224 19.5639 18.9291 20.1807C18.4714 21.1418 17.1808 21.5812 16.1099 21.7917C15.3384 21.9633 14.5551 22.0766 13.7666 22.1304C12.5794 22.231 11.3866 22.2494 10.1968 22.1853C9.92221 22.1853 9.65677 22.1853 9.38217 22.1304C8.59663 22.0772 7.81632 21.964 7.04807 21.7917C5.96798 21.5812 4.68652 21.1418 4.2197 20.1807C4.0746 19.8746 3.99955 19.54 4.00002 19.2013Z" stroke="black" stroke-width="1.5" stroke-linecap="round" stroke-linejoin="round"/>
</svg>
